<?xml version="1.0" standalone="no"?>
<!DOCTYPE svg PUBLIC "-//W3C//DTD SVG 20010904//EN"
 "http://www.w3.org/TR/2001/REC-SVG-20010904/DTD/svg10.dtd">
<svg version="1.0" xmlns="http://www.w3.org/2000/svg"
 width="698.000000pt" height="698.000000pt" viewBox="0 0 698.000000 698.000000"
 preserveAspectRatio="xMidYMid meet">
<metadata>
Created by potrace 1.11, written by Peter Selinger 2001-2013
</metadata>
<g transform="translate(0.000000,698.000000) scale(0.100000,-0.100000)"
fill="#000000" stroke="none">
<path d="M3219 6485 c-2 -2 -47 -6 -99 -9 -101 -7 -164 -13 -220 -21 -19 -3
-55 -8 -79 -10 -24 -2 -51 -7 -60 -9 -9 -3 -36 -8 -61 -11 -25 -4 -63 -10 -85
-15 -22 -5 -55 -11 -73 -15 -63 -11 -298 -74 -392 -105 -284 -95 -539 -215
-790 -374 -36 -22 -69 -44 -75 -48 -5 -5 -57 -43 -115 -86 -58 -44 -121 -92
-140 -108 -53 -45 -340 -332 -340 -341 0 -4 -17 -27 -38 -51 -71 -81 -137
-176 -259 -377 -18 -28 -147 -291 -171 -345 -11 -25 -31 -79 -46 -120 -34 -96
-33 -93 -36 -105 -1 -5 -6 -16 -12 -23 -6 -7 -8 -15 -5 -19 4 -3 2 -13 -2 -22
-21 -39 -81 -294 -97 -416 -3 -22 -8 -58 -11 -80 -9 -73 -10 -424 -1 -478 28
-156 41 -213 69 -297 126 -385 402 -649 714 -686 33 -4 68 -6 79 -6 23 1 25 3
-66 -46 -190 -100 -315 -242 -351 -398 -15 -63 -15 -203 0 -226 4 -7 8 -19 9
-26 4 -23 52 -96 86 -131 30 -31 78 -59 118 -68 27 -6 104 -7 133 0 90 19 203
113 281 234 40 62 116 212 116 229 0 3 6 20 14 37 15 33 49 122 108 286 26 70
39 95 54 98 62 10 434 0 456 -13 4 -2 37 -7 75 -10 37 -3 79 -7 93 -9 14 -3
43 -7 65 -10 22 -3 49 -8 60 -10 11 -1 45 -6 75 -10 58 -8 60 -9 100 -18 14
-3 52 -10 85 -17 120 -22 306 -71 460 -121 39 -13 72 -23 75 -24 3 -1 19 -7
35 -14 17 -6 44 -17 60 -23 86 -32 251 -117 335 -173 238 -159 343 -325 343
-545 1 -160 -32 -287 -145 -574 -68 -169 -71 -180 -57 -205 21 -36 53 -34 151
11 71 33 99 42 97 31 -7 -43 22 -77 61 -69 15 3 56 18 91 34 35 16 87 39 114
52 157 70 518 263 558 298 9 8 17 11 17 6 0 -5 4 -4 8 1 4 6 41 31 82 55 41
25 80 48 85 52 6 5 53 36 105 70 52 34 97 66 98 70 2 4 8 8 13 8 12 0 325 226
363 262 8 7 26 22 42 33 36 26 158 126 164 134 3 4 14 14 26 22 18 12 91 75
198 172 81 74 269 262 342 343 141 156 334 401 334 423 0 5 4 11 8 13 21 8
173 260 245 403 97 195 191 444 222 590 3 17 10 50 16 75 14 68 21 102 24 135
2 17 7 55 11 85 10 61 10 389 1 460 -3 25 -8 63 -11 85 -3 22 -8 51 -12 65 -4
14 -8 34 -10 45 -4 34 -44 178 -58 210 -7 17 -22 55 -32 85 -11 30 -22 57 -26
58 -5 2 -8 9 -8 16 0 15 -58 126 -118 229 -46 78 -155 228 -220 303 -87 101
-269 277 -331 320 -11 8 -35 28 -52 43 -17 16 -70 55 -117 87 -48 33 -89 62
-92 65 -13 15 -238 142 -340 191 -124 61 -300 135 -328 140 -9 2 -19 5 -22 8
-12 13 -376 120 -465 137 -46 8 -60 11 -62 13 -4 3 -11 5 -68 15 -27 5 -52 9
-55 10 -3 1 -27 5 -55 10 -27 4 -59 9 -70 12 -11 2 -38 6 -60 8 -22 3 -56 7
-75 10 -19 3 -64 7 -100 10 -36 4 -78 9 -95 12 -33 6 -860 14 -866 8z m2583
-671 c87 -57 186 -128 235 -169 6 -5 29 -23 50 -40 79 -63 302 -294 371 -385
40 -52 76 -100 81 -106 4 -5 14 -21 21 -35 7 -13 16 -26 19 -29 18 -15 138
-254 167 -333 39 -106 48 -138 74 -252 21 -92 23 -107 36 -210 14 -109 7 -389
-12 -485 -3 -14 -7 -41 -10 -60 -15 -116 -106 -416 -164 -545 -115 -253 -209
-417 -355 -620 -27 -38 -55 -77 -62 -85 -164 -207 -197 -244 -398 -445 -177
-178 -266 -260 -395 -366 -36 -29 -67 -55 -70 -59 -14 -15 -191 -150 -198
-150 -4 0 -14 -9 -22 -20 -8 -11 -20 -20 -27 -20 -7 0 -13 -4 -13 -10 0 -5 -4
-10 -10 -10 -5 0 -18 -8 -29 -18 -10 -9 -49 -37 -86 -62 -36 -25 -75 -53 -86
-63 -10 -9 -23 -17 -29 -17 -5 0 -10 -4 -10 -9 0 -5 -8 -11 -17 -14 -17 -6
-236 -146 -259 -165 -6 -5 -20 -13 -32 -16 -12 -4 -22 -12 -22 -17 0 -5 -4 -9
-10 -9 -5 0 -38 -17 -72 -38 -35 -21 -103 -60 -153 -87 -49 -26 -105 -57 -123
-68 -18 -10 -35 -17 -37 -15 -5 5 152 98 166 98 5 0 9 5 9 10 0 6 4 10 9 10
19 0 472 295 479 313 2 4 10 7 17 7 7 0 15 4 17 8 2 4 47 41 102 81 54 40 122
92 150 114 28 23 66 53 85 67 18 14 45 36 61 50 15 14 46 40 68 58 23 18 54
45 71 60 16 15 67 61 112 102 185 167 385 380 533 565 31 39 60 75 66 82 27
33 153 217 191 281 96 159 219 396 226 435 2 10 9 28 17 40 42 66 143 421 162
567 2 19 6 51 9 70 25 158 20 437 -10 590 -2 14 -7 39 -10 55 -12 75 -72 277
-102 345 -9 19 -24 55 -35 80 -11 25 -23 52 -28 60 -5 8 -19 35 -31 60 -28 56
-159 257 -188 287 -12 12 -21 26 -21 30 0 5 -8 16 -17 24 -10 9 -37 38 -60 66
-64 76 -190 200 -284 279 -104 88 -245 194 -258 194 -5 0 -11 4 -13 8 -3 10
-114 82 -126 82 -4 0 -18 10 -32 21 -44 37 205 -97 312 -167z m-4608 -3631
c-20 -54 -37 -102 -38 -108 -1 -5 -10 -27 -19 -49 -9 -21 -17 -41 -17 -43 0
-6 -21 -54 -63 -147 -128 -280 -320 -394 -437 -260 -29 33 -63 111 -55 124 3
5 1 11 -3 14 -11 7 -5 101 8 141 18 52 35 85 42 85 5 0 8 6 8 13 0 17 82 104
140 148 76 57 233 127 340 150 25 6 61 14 80 18 19 5 38 9 42 10 4 0 -8 -43
-28 -96z m2932 -1418 c-11 -8 -25 -15 -30 -15 -6 1 0 7 14 15 32 19 40 18 16
0z"/>
</g>
</svg>
